<?xml version="1.0" encoding="iso-8859-1"?>
<!-- Generator: Adobe Illustrator 22.1.0, SVG Export Plug-In . SVG Version: 6.00 Build 0)  -->
<svg version="1.1" id="_x34_" xmlns="http://www.w3.org/2000/svg" xmlns:xlink="http://www.w3.org/1999/xlink" x="0px" y="0px"
	 viewBox="0 0 512 394.4" style="enable-background:new 0 0 512 394.4;" xml:space="preserve">
<style type="text/css">
	.st0{fill:#E88851;}
	.st1{fill:#FFFFFF;}
	.st2{fill:#F4E7E7;}
	.st3{fill:#43B8B2;}
	.st4{opacity:0.1;fill:#FFFFFF;}
	.st5{opacity:0.1;fill:#040000;}
</style>
<g>
	<path class="st0" d="M34.6,394.4c-19.1,0-34.6-17-34.6-37.9V38C0,17,15.5,0,34.6,0h442.9C496.5,0,512,17,512,38v318.5
		c0,20.9-15.5,37.9-34.6,37.9H34.6z"/>
	<path class="st1" d="M483.6,38v318.5c0,3.8-2.8,6.8-6.2,6.8H34.6c-3.5,0-6.2-3-6.2-6.8V38c0-3.8,2.7-6.8,6.2-6.8h442.9
		C480.8,31.1,483.6,34.2,483.6,38z"/>
	<g>
		<rect x="286.6" y="68.7" class="st2" width="172.4" height="3.1"/>
		<rect x="286.6" y="100.4" class="st2" width="172.4" height="3.1"/>
		<rect x="286.6" y="132.2" class="st2" width="172.4" height="3.1"/>
		<rect x="286.6" y="163.9" class="st2" width="172.4" height="3.1"/>
		<rect x="286.6" y="227.4" class="st2" width="172.4" height="3.1"/>
		<rect x="286.6" y="259.1" class="st2" width="172.4" height="3.1"/>
		<rect x="286.6" y="322.6" class="st2" width="172.4" height="3.1"/>
		<rect x="286.6" y="290.9" class="st2" width="172.4" height="3.1"/>
		<rect x="286.6" y="195.7" class="st2" width="172.4" height="3.1"/>
		<rect x="53" y="68.7" class="st2" width="172.4" height="3.1"/>
		<rect x="53" y="100.4" class="st2" width="172.4" height="3.1"/>
		<rect x="53" y="132.2" class="st2" width="172.4" height="3.1"/>
		<rect x="53" y="163.9" class="st2" width="172.4" height="3.1"/>
		<rect x="53" y="227.4" class="st2" width="172.4" height="3.1"/>
		<rect x="53" y="259.1" class="st2" width="172.4" height="3.1"/>
		<rect x="53" y="322.6" class="st2" width="172.4" height="3.1"/>
		<rect x="53" y="290.9" class="st2" width="172.4" height="3.1"/>
		<rect x="53" y="195.7" class="st2" width="172.4" height="3.1"/>
	</g>
	<polygon class="st3" points="357.2,135.3 327.7,113.2 298.2,135.3 298.2,69.6 298.2,20.4 327.7,20.4 357.2,20.4 357.2,69.6 	"/>
	<rect x="301.7" y="22.2" class="st4" width="52" height="9.5"/>
	<g>
		<path class="st5" d="M494.1,47.2h-9.6V356c0,3.8-2.8,6.8-6.2,6.8H256.8V31.1h-1.6v331.7H45v9.7c0,3.8,2.7,6.8,6.2,6.8h442.9
			c3.4,0,6.2-3,6.2-6.8V54C500.3,50.2,497.5,47.2,494.1,47.2z"/>
		<polygon class="st5" points="366.7,153 366.7,20.4 358,20.4 358,135.7 328.5,113.7 307.7,129.2 307.7,153 337.2,130.9 		"/>
	</g>
</g>
</svg>
