<?xml version="1.0" encoding="iso-8859-1"?>
<!-- Generator: Adobe Illustrator 22.1.0, SVG Export Plug-In . SVG Version: 6.00 Build 0)  -->
<svg version="1.1" id="_x34_" xmlns="http://www.w3.org/2000/svg" xmlns:xlink="http://www.w3.org/1999/xlink" x="0px" y="0px"
	 viewBox="0 0 359.7 512" style="enable-background:new 0 0 359.7 512;" xml:space="preserve">
<style type="text/css">
	.st0{fill:#E88851;}
	.st1{fill:#FFFFFF;}
	.st2{fill:#F5F6D5;}
	.st3{opacity:0.1;}
	.st4{fill:#323333;}
	.st5{fill:#47B68A;}
	.st6{opacity:0.1;fill:#323333;}
</style>
<g>
	<path class="st0" d="M342.2,40H17.5C7.8,40,0,47.9,0,57.6v396.5v0c0,32,25.9,57.9,57.9,57.9h301.8v-57.9v-57.9V57.6
		C359.7,47.9,351.9,40,342.2,40z"/>
	<g>
		<path class="st1" d="M19.3,454.1c0,21.3,17.3,38.6,38.6,38.6h301.8v-38.6H19.3z"/>
		<path class="st1" d="M334.4,65.3H25.3v363.5h309.1V65.3z M327,421.4H32.7V72.7H327V421.4z"/>
	</g>
	<rect x="103.8" y="148.3" class="st2" width="152.1" height="59.5"/>
	<g class="st3">
		<path class="st4" d="M359.7,454.1v19.3H24.5c-3.3-5.7-5.2-12.3-5.2-19.3H359.7z"/>
	</g>
	<rect x="259.9" class="st5" width="57.1" height="40"/>
	<rect x="259.9" y="24.6" class="st6" width="57.1" height="15.5"/>
</g>
</svg>
