<?xml version="1.0" encoding="iso-8859-1"?>
<!-- Generator: Adobe Illustrator 22.1.0, SVG Export Plug-In . SVG Version: 6.00 Build 0)  -->
<svg version="1.1" id="_x34_" xmlns="http://www.w3.org/2000/svg" xmlns:xlink="http://www.w3.org/1999/xlink" x="0px" y="0px"
	 viewBox="0 0 512 422.2" style="enable-background:new 0 0 512 422.2;" xml:space="preserve">
<style type="text/css">
	.st0{fill:#E67E66;}
	.st1{fill:#6F2F33;}
	.st2{opacity:0.1;fill:#040000;}
	.st3{opacity:0.1;fill:#FFFFFF;}
</style>
<g>
	<path class="st0" d="M412.8,41.4c0,0-42.2-17.3-77.3-32.4c-2.4-1-4.7-2-7-3c-4.8-2.1-9.4-4.1-13.6-5.9c0.4,10.2,0.4,10.2,0,0
		c-2.6,2.6-34.8,15.7-58.9,15.7c-24.1,0-56.3-13.1-58.9-15.7c-0.4,8.5-0.4,8.5,0,0c-4.2,1.9-8.8,3.9-13.6,5.9c-2.3,1-4.6,2-7,3
		c-35.1,15.1-77.3,32.4-77.3,32.4L0,177.3l85.3,67.2l21.5-12.6l2.2-1.3v191.6H403V230.6l23.7,13.8l85.3-67.2L412.8,41.4z"/>
	<path class="st1" d="M256,85.7c24.4,0,61.2-31.1,58.9-85.6c-2.6,2.6-34.8,15.7-58.9,15.7c-24.1,0-56.3-13.1-58.9-15.7
		C194.8,54.6,231.6,85.7,256,85.7z"/>
	<g>
		<polygon class="st2" points="106.9,231.9 109.1,230.6 109.1,58.2 106.9,56.2 		"/>
		<polygon class="st2" points="403,58.2 403,230.6 405.1,231.9 405.1,56.2 		"/>
	</g>
	<g>
		<rect x="109" y="407.4" class="st3" width="293.9" height="4.7"/>
		<path class="st3" d="M256,99.4c11.9,0,30.9-7.4,46.4-23.6c11.9-12.6,25.6-34.6,26-69.8c-4.7-2.1-9.3-4.1-13.6-5.9c0,0,0,0,0,0
			c0,0,0,0,0,0c0,0,0,0,0,0c0,0,0,0,0,0C312.1,2.7,280,15.8,256,15.8c-24.1,0-56.1-13-58.9-15.7v0c0,0,0,0,0,0c0,0,0,0,0,0
			c0,0,0,0,0,0c-4.2,1.8-8.9,3.8-13.6,5.9c0.4,35.2,14.1,57.2,26,69.8C225.1,92,244,99.4,256,99.4z M256,33.5
			c12.7,0,35.2-3,58.2-15.9c-5.1,43.6-36.5,68.1-58.1,68.1c-21.6,0-53-24.5-58.2-68.1C220.8,30.5,243.3,33.5,256,33.5z"/>
	</g>
</g>
</svg>
