<?xml version="1.0" encoding="iso-8859-1"?>
<!-- Generator: Adobe Illustrator 22.1.0, SVG Export Plug-In . SVG Version: 6.00 Build 0)  -->
<svg version="1.1" id="_x34_" xmlns="http://www.w3.org/2000/svg" xmlns:xlink="http://www.w3.org/1999/xlink" x="0px" y="0px"
	 viewBox="0 0 512 439.8" style="enable-background:new 0 0 512 439.8;" xml:space="preserve">
<style type="text/css">
	.st0{fill:#FCF7E1;}
	.st1{opacity:0.1;fill:#040000;}
	.st2{fill:#346662;}
	.st3{fill:#8FB7B3;}
</style>
<g>
	<path class="st0" d="M109.5,435.9c-5.9,0-10.7-4.8-10.7-10.7V195.6l-42.5,14.9L5,119.7l100.9-75.5c5.7-4.3,12-7.7,18.6-10.1
		l10.6-3.9c13.9-5.2,32.6-12,47.3-17.7l1.7-0.6l0.8-0.2c5.1-2,10-3.9,13.8-5.4l3.5-1.5l1.9,1.9c1.1,0.9,1.8,1.3,2.5,1.7
		c7.7,4.2,25.2,6.5,49.4,6.5c24.2,0,41.7-2.3,49.3-6.5c0.8-0.4,1.4-0.8,2-1.3l1.9-1.9l2.9,0.6l1,0.4c3.7,1.5,8.4,3.4,13.8,5.4l2.5,1
		c7.4,2.9,15.8,6,24.1,9.1c0,0,27,10,34,12.6c6.6,2.4,12.9,5.8,18.6,10.1L507,119.7l-51.4,90.8l-42.5-14.9v229.7
		c0,5.9-4.8,10.7-10.7,10.7H109.5z"/>
	<path class="st1" d="M311.8,9.7c0,0.2-0.1,0.4-0.2,0.6c-12.2,35.7-37.2,45.8-55.6,45.8c-18.4,0-43.4-10.1-55.6-45.8
		c-0.1-0.2-0.2-0.4-0.2-0.6c0.4-0.2,0.8-0.3,1.2-0.5c0.2,0.2,0.5,0.5,0.8,0.7c0.7,0.6,1.6,1.2,2.6,1.7c8.4,4.6,26.2,6.9,51.2,6.9
		c25,0,42.8-2.4,51.2-6.9c1-0.5,1.9-1.1,2.6-1.7c0.3-0.2,0.5-0.5,0.8-0.7C311,9.3,311.4,9.5,311.8,9.7z"/>
	<path class="st2" d="M506.6,114.6l-18.1-13.5l-1.6-1.2l-1.7-1.2l-76.8-57.5c-6-4.5-12.6-8.1-19.6-10.6c-7-2.6-17.2-6.3-28-10.4
		l-6.1-2.3c-8.2-3.1-16.5-6.1-23.8-9c-0.6-0.2-1.1-0.4-1.6-0.6l-0.2-0.1L328.6,8l-0.3-0.1c-5.3-2-10-3.9-13.6-5.3
		c-0.4-0.1-0.7-0.3-1-0.4L308.9,0l-3.7,3.7L304.8,4c-0.2,0.2-0.6,0.4-1.3,0.8c-3.3,1.8-14.6,6-47.5,6s-44.2-4.2-47.5-6
		c-0.7-0.4-1.1-0.6-1.4-0.9l-0.3-0.3l-3.7-3.5l-4.8,1.9c-0.3,0.1-0.6,0.3-0.9,0.4c-3.7,1.5-8.4,3.4-13.8,5.4l-0.1,0L183,8.1
		l-0.2,0.1c-0.5,0.2-0.9,0.3-1.3,0.5l-0.2,0.1l-0.1,0.1c-14.7,5.6-33.5,12.6-47.2,17.6l-10.7,4c-6.9,2.5-13.5,6.1-19.6,10.6
		L26.8,98.6l-1.7,1.3l-1.7,1.2L5.4,114.6L0,118.6l3.3,5.9l48.1,85.1l3.2,5.6l6.1-2.1l21.4-7.5l2-0.7l2-0.7L95,201v224.3
		c0,8,6.5,14.5,14.5,14.5h293c8,0,14.5-6.5,14.5-14.5V201l8.9,3.1l2,0.7l2,0.7l21.5,7.5l6.1,2.1l3.2-5.6l48.1-85.1l3.3-5.9
		L506.6,114.6z M202.2,9.9c0.8,0.6,1.6,1.2,2.6,1.7c8.4,4.6,26.2,6.9,51.2,6.9s42.8-2.4,51.2-6.9c1-0.5,1.9-1.1,2.6-1.7
		c0.3-0.2,0.5-0.5,0.8-0.7c0.1,0,0.1,0.1,0.2,0.1c-0.4,0.3-0.8,0.6-1.3,0.8c-11.9,42.3-43.9,45.6-53.5,45.6
		c-9.6,0-41.6-3.3-53.5-45.6c-0.5-0.3-0.9-0.6-1.3-0.8c0.1,0,0.1-0.1,0.2-0.1C201.7,9.4,201.9,9.6,202.2,9.9z M185.4,15.4
		c0.2,0,0.3-0.1,0.5-0.2c4.7-1.8,8.8-3.4,12.3-4.8C210.7,56.3,245.5,60,256,60c10.5,0,45.3-3.7,57.9-49.5c3.4,1.3,7.3,2.9,11.7,4.6
		c0.2,0.1,0.4,0.1,0.5,0.2c0.2,0.1,0.4,0.2,0.7,0.3c-9.6,56.3-56.5,60.9-70.8,60.9c-14.3,0-61.4-4.6-70.8-60.9c0,0,0,0,0.1,0
		L185.4,15.4z M453.9,205.8l-21.4-7.5l-2-0.7l-2-0.7l-17.1-6l-2-0.7v0l2.1,0.7c-45.8-83.6-18.5-143.5-18.2-144.1
		c0.3-0.7,0-1.6-0.7-1.9c-0.7-0.3-1.6,0-1.9,0.7c-0.3,0.7-7.9,16.9-8.7,44.5c-0.7,23.6,3.7,60.1,27.4,103.1v232.1
		c0,3.8-3.1,6.8-6.8,6.8h-293c-3.8,0-6.8-3.1-6.8-6.8V193.1c23.7-43,28.1-79.5,27.4-103.1c-0.8-27.6-8.4-43.8-8.7-44.5
		c-0.3-0.7-1.2-1-1.9-0.7c-0.7,0.3-1,1.2-0.7,1.9c0.3,0.6,27.5,60.4-18.2,144.1l2.1-0.7v0l-2,0.7l-17.1,6l-2,0.7l-2,0.7l-21.4,7.5
		L10,120.7l18.1-13.5l1.7-1.2l1.7-1.2l76.8-57.5c5.4-4,11.3-7.3,17.6-9.6c12.9-4.8,36.6-13.5,55.3-20.6
		c8.4,46.8,43.9,63.7,74.9,63.7c31,0,66.4-16.8,74.9-63.7c8.5,3.3,18.1,6.8,27.2,10.2c10.8,4,21.1,7.8,28.1,10.4
		c6.3,2.3,12.3,5.5,17.6,9.6l76.8,57.5l1.7,1.2l1.7,1.2l18.1,13.5L453.9,205.8z"/>
	<g>
		<polygon class="st3" points="76.7,193.2 79.6,198.3 81.6,197.6 83.6,196.9 80.3,191.2 		"/>
		
			<rect x="48.4" y="136.3" transform="matrix(0.8709 -0.4915 0.4915 0.8709 -63.5767 43.2084)" class="st3" width="4.1" height="12.6"/>
		<polygon class="st3" points="35.2,119.8 41.4,130.7 45,128.7 38.8,117.8 		"/>
		<rect x="69.2" y="173" transform="matrix(0.871 -0.4913 0.4913 0.871 -78.9031 58.1281)" class="st3" width="4.1" height="12.6"/>
		<polygon class="st3" points="55.9,156.5 62.1,167.4 65.7,165.4 59.6,154.5 		"/>
		<polygon class="st3" points="29.8,106 28.1,107.2 31,112.4 34.6,110.4 31.4,104.7 		"/>
		<polygon class="st3" points="482.2,106 480.6,104.7 477.4,110.4 481,112.4 483.9,107.2 		"/>
		
			<rect x="455.3" y="140.5" transform="matrix(0.4907 -0.8713 0.8713 0.4907 110.8063 474.7891)" class="st3" width="12.6" height="4.2"/>
		<polygon class="st3" points="467,128.7 470.6,130.7 476.8,119.8 473.2,117.8 		"/>
		<polygon class="st3" points="446.3,165.4 449.9,167.4 456.1,156.5 452.4,154.5 		"/>
		
			<rect x="434.5" y="177.2" transform="matrix(0.4908 -0.8713 0.8713 0.4908 68.239 475.3493)" class="st3" width="12.6" height="4.1"/>
		<polygon class="st3" points="428.4,196.9 430.4,197.6 432.4,198.3 435.3,193.2 431.7,191.2 		"/>
		<rect x="403.1" y="401" class="st3" width="6.2" height="4.2"/>
		<rect x="137.4" y="401" class="st3" width="12.4" height="4.2"/>
		<rect x="117" y="401" class="st3" width="12.4" height="4.2"/>
		<rect x="157.9" y="401" class="st3" width="12.3" height="4.2"/>
		<rect x="362.2" y="401" class="st3" width="12.3" height="4.2"/>
		<rect x="280.5" y="401" class="st3" width="12.3" height="4.2"/>
		<rect x="321.3" y="401" class="st3" width="12.4" height="4.2"/>
		<rect x="300.9" y="401" class="st3" width="12.4" height="4.2"/>
		<rect x="341.7" y="401" class="st3" width="12.3" height="4.2"/>
		<rect x="382.6" y="401" class="st3" width="12.3" height="4.2"/>
		<rect x="239.6" y="401" class="st3" width="12.3" height="4.2"/>
		<rect x="198.7" y="401" class="st3" width="12.4" height="4.2"/>
		<rect x="219.1" y="401" class="st3" width="12.4" height="4.2"/>
		<rect x="260" y="401" class="st3" width="12.3" height="4.2"/>
		<rect x="178.2" y="401" class="st3" width="12.4" height="4.2"/>
		<rect x="102.7" y="401" class="st3" width="6.2" height="4.2"/>
	</g>
</g>
</svg>
