<?xml version="1.0" encoding="iso-8859-1"?>
<!-- Generator: Adobe Illustrator 24.0.2, SVG Export Plug-In . SVG Version: 6.00 Build 0)  -->
<svg version="1.1" id="_x34_" xmlns="http://www.w3.org/2000/svg" xmlns:xlink="http://www.w3.org/1999/xlink" x="0px" y="0px"
	 viewBox="0 0 512 371.9" style="enable-background:new 0 0 512 371.9;" xml:space="preserve">
<style type="text/css">
	.st0{fill:#262A2A;}
	.st1{fill:#353C3E;}
	.st2{fill:#121213;}
	.st3{opacity:0.1;fill:#FFFFFF;}
	.st4{fill:#EAC01C;}
	.st5{fill:#35479A;}
	.st6{fill:#E62230;}
	.st7{fill:#1A6F38;}
	.st8{opacity:0.2;fill:#FFFFFF;}
	.st9{opacity:0.5;fill:#040000;}
</style>
<g>
	<path class="st0" d="M511.5,276.9c0-0.5-0.1-1-0.1-1.4c0,0,0,0,0-0.1c-0.7-9-2.1-18.9-4.4-29.7c-0.7-3.5-1.5-7.1-2.4-10.8
		c-16.5-67.6-34.6-114.6-47.1-142.6c-4.5-10-10.4-19.2-17.5-27.2l-9.1-28.4c-1.9-5.8-6.2-10.4-11.8-12.6L360.3,1.4
		c-6.1-2.4-13-1.6-18.5,2l-15.5,15.7H185.6L170.1,3.4c-5.5-3.6-12.4-4.4-18.5-2L93,24.3c-5.6,2.2-10,6.8-11.8,12.6L72,65.2
		C64.9,73.3,59,82.4,54.5,92.4c-12.5,28-30.6,75-47.1,142.6c-0.9,3.7-1.7,7.3-2.4,10.8c-2.3,11.3-3.8,21.6-4.5,31
		c-5.4,71.8,32.4,92.2,49.4,94.9c0.5,0.1,1,0.1,1.6,0.2c1.8,0.2,3.2,0.1,4.3-0.1c14.3-2.6,65.6-98.8,104.9-98.8
		c39.4,0,95.3,0,95.3,0s55.9,0,95.3,0c39.4,0,90.6,96.2,105,98.8C467.5,373.8,517.5,358.7,511.5,276.9z"/>
	<g>
		<polygon class="st1" points="347.8,27.9 163.3,27.9 202.8,77.6 308.4,77.6 		"/>
		<path class="st1" d="M125.9,74.9c-17.3,0-31.2,14-31.2,31.2c0,17.3,13.9,31.3,31.2,31.3c17.3,0,31.2-14,31.2-31.3
			C157.1,88.9,143.2,74.9,125.9,74.9z"/>
		<path class="st1" d="M320,160.6c-17.3,0-31.2,14-31.2,31.2c0,17.3,13.9,31.3,31.2,31.3c17.3,0,31.2-14,31.2-31.3
			C351.2,174.6,337.3,160.6,320,160.6z"/>
	</g>
	<g>
		<path class="st2" d="M511.5,276.9c0-0.5-0.1-1-0.1-1.4c-0.8-9-2.2-19-4.4-29.7c-0.7-3.5-1.5-7.1-2.4-10.8
			C488,167.4,470,120.4,457.5,92.4c-11.8-26.4-33.8-47.1-61.1-56.7c-10-3.4-21.4-6.2-33.8-7.4l-54.1,68.1H202.8l-54-68
			c-12.2,1.1-23.3,3.9-33.2,7.3c-27.3,9.6-49.3,30.3-61,56.7C42,120.4,23.9,167.4,7.4,235c-0.9,3.7-1.7,7.3-2.4,10.8
			c-2.3,11.3-3.8,21.5-4.5,31C-4.8,348.5,32.9,369,50,371.6c0.5,0.1,1,0.1,1.5,0.2c1.8,0.2,3.2,0.2,4.2-0.1
			c14.3-2.6,65.6-98.7,105-98.7s95.3,0,95.3,0s55.9,0,95.3,0c39.4,0,90.6,96.2,105,98.7C467.5,373.8,517.5,358.8,511.5,276.9z
			 M229.5,110c5,0,9,4.1,9,9c0,5-4,9.1-9,9.1c-5,0-9.1-4.1-9.1-9.1C220.4,114,224.4,110,229.5,110z M85.2,106.1
			c0-22.4,18.2-40.6,40.6-40.6c22.5,0,40.7,18.2,40.7,40.6c0,22.5-18.2,40.7-40.7,40.7C103.4,146.8,85.2,128.6,85.2,106.1z
			 M196,236.5c-24.6,0-44.6-20-44.6-44.6c0-24.6,20-44.6,44.6-44.6c24.6,0,44.6,20,44.6,44.6C240.6,216.5,220.6,236.5,196,236.5z
			 M273.3,119c0-5,4.1-9,9.1-9c5,0,9,4.1,9,9c0,5-4,9.1-9,9.1C277.4,128.1,273.3,124,273.3,119z M320,232.5
			c-22.5,0-40.6-18.2-40.6-40.6c0-22.5,18.2-40.7,40.6-40.7c22.5,0,40.7,18.2,40.7,40.7C360.7,214.4,342.4,232.5,320,232.5z"/>
		<path class="st2" d="M207.9,158.2c0-1.5-1.2-2.7-2.7-2.7h-18.4c-1.5,0-2.7,1.2-2.7,2.7V180h-21.7c-1.5,0-2.7,1.2-2.7,2.7v18.4
			c0,1.5,1.2,2.7,2.7,2.7h21.7v21.7c0,1.5,1.2,2.7,2.7,2.7h18.4c1.5,0,2.7-1.2,2.7-2.7v-21.7h21.8c1.5,0,2.7-1.2,2.7-2.7v-18.4
			c0-1.5-1.2-2.7-2.7-2.7h-21.8V158.2z"/>
		<path class="st2" d="M125.9,81.3c-13.7,0-24.8,11.1-24.8,24.8c0,13.7,11.1,24.9,24.8,24.9c13.7,0,24.8-11.2,24.8-24.9
			C150.7,92.4,139.6,81.3,125.9,81.3z"/>
		<path class="st2" d="M320,167c-13.7,0-24.8,11.1-24.8,24.8c0,13.7,11.1,24.9,24.8,24.9c13.7,0,24.8-11.2,24.8-24.9
			C344.8,178.2,333.7,167,320,167z"/>
	</g>
	<g>
		<path class="st3" d="M320,191.9v19.6c5,0,10-1.9,13.8-5.7c3.8-3.8,5.7-8.8,5.7-13.8H320z"/>
		<path class="st3" d="M125.9,125.7c5,0,10-1.9,13.8-5.7c3.8-3.8,5.7-8.8,5.7-13.8h-19.6V125.7z"/>
	</g>
	<path class="st4" d="M388.5,101.4c-7.2,0-13.1-5.9-13.1-13.1c0-7.2,5.9-13.1,13.1-13.1c7.2,0,13.1,5.9,13.1,13.1
		C401.5,95.5,395.6,101.4,388.5,101.4z M388.5,79c-5.1,0-9.3,4.2-9.3,9.3s4.2,9.3,9.3,9.3c5.1,0,9.3-4.2,9.3-9.3S393.6,79,388.5,79z
		"/>
	<path class="st5" d="M356.2,131.9c-7.2,0-13.1-5.9-13.1-13.1c0-7.2,5.9-13.1,13.1-13.1c7.2,0,13.1,5.9,13.1,13.1
		C369.2,126.1,363.4,131.9,356.2,131.9z M356.2,109.6c-5.1,0-9.3,4.2-9.3,9.3s4.2,9.3,9.3,9.3c5.1,0,9.3-4.2,9.3-9.3
		S361.3,109.6,356.2,109.6z"/>
	<path class="st6" d="M420.1,131.9c-7.2,0-13.1-5.9-13.1-13.1c0-7.2,5.9-13.1,13.1-13.1c7.2,0,13.1,5.9,13.1,13.1
		C433.1,126.1,427.3,131.9,420.1,131.9z M420.1,109.6c-5.1,0-9.3,4.2-9.3,9.3s4.2,9.3,9.3,9.3c5.1,0,9.3-4.2,9.3-9.3
		S425.2,109.6,420.1,109.6z"/>
	<path class="st7" d="M388.5,165.2c-7.2,0-13.1-5.9-13.1-13.1c0-7.2,5.9-13.1,13.1-13.1c7.2,0,13.1,5.9,13.1,13.1
		C401.5,159.3,395.6,165.2,388.5,165.2z M388.5,142.8c-5.1,0-9.3,4.2-9.3,9.3c0,5.1,4.2,9.3,9.3,9.3c5.1,0,9.3-4.2,9.3-9.3
		C397.8,147,393.6,142.8,388.5,142.8z"/>
	<g>
		<path class="st8" d="M196.1,183.7c-4.6,0-8.3,3.7-8.3,8.3c0,4,2.8,7.3,6.5,8.1l9.9-9.9C203.4,186.5,200,183.7,196.1,183.7z"/>
		<path class="st8" d="M300.4,191.9l19.6,0v-19.6c-5,0-10,1.9-13.8,5.7C302.3,181.9,300.4,186.9,300.4,191.9z"/>
		<path class="st8" d="M106.3,106.1h19.6V86.6c-5,0-10,1.9-13.8,5.7C108.2,96.1,106.3,101.1,106.3,106.1z"/>
		<path class="st8" d="M388.9,68.9c-5,0-10,1.9-13.8,5.7c-3.8,3.8-5.7,8.8-5.7,13.8l19.6,0V68.9z"/>
		<path class="st8" d="M406.7,105.9c-3.8,3.8-5.7,8.8-5.7,13.8h19.6v-19.6C415.6,100.2,410.5,102.1,406.7,105.9z"/>
		<path class="st8" d="M337.1,119.7h19.6v-19.6c-5,0-10,1.9-13.8,5.7C339,109.7,337.1,114.7,337.1,119.7z"/>
		<path class="st8" d="M370.2,153.2h19.6v-19.6c-5,0-10,1.9-13.8,5.7C372.1,143.2,370.2,148.2,370.2,153.2z"/>
	</g>
	<g>
		<path class="st9" d="M236.1,54.3c0,4.1,1.3,7.9,3.4,11.1c0.7-5.6,3-11,6.6-15.5c1.6-2,3.5-3.9,5.6-5.4c-2.3-1.2-4.7-2.2-7.2-2.8
			c-1.2-0.2-2.4-0.4-3.5-0.4C237.9,44.8,236.1,49.4,236.1,54.3z"/>
		<path class="st9" d="M270,68.3c-0.1-2.3-0.7-4.5-1.5-6.6c-1.4-3.3-3.4-6.3-5.9-8.9c-2-2.1-4.2-4-6.6-5.6c-2.4,1.6-4.6,3.5-6.6,5.6
			c-2.5,2.6-4.5,5.6-5.9,8.9c-0.9,2.1-1.4,4.3-1.5,6.6c3.6,3.6,8.5,5.9,14.1,5.9C261.4,74.1,266.4,71.9,270,68.3z"/>
		<path class="st9" d="M256,41.9c3.4-1.7,7.2-2.8,11-3.1c0.4,0,0.8-0.1,1.2-0.1c-3.4-2.6-7.6-4.2-12.2-4.2c-4.6,0-8.9,1.6-12.2,4.2
			c0.4,0,0.8,0.1,1.2,0.1C248.7,39.1,252.5,40.2,256,41.9z"/>
		<path class="st9" d="M275.7,54.3c0-4.9-1.8-9.5-4.8-13c-1.2,0-2.4,0.2-3.5,0.4c-2.6,0.6-5,1.5-7.2,2.8c2.1,1.6,3.9,3.4,5.6,5.4
			c3.6,4.4,5.9,9.8,6.6,15.4C274.5,62.3,275.7,58.4,275.7,54.3z"/>
		<path class="st9" d="M101.7,41.8V20.9L93,24.3c-5.7,2.2-10,6.8-11.8,12.6L72,65.1C80.4,55.6,90.5,47.7,101.7,41.8z"/>
		<path class="st9" d="M342,27.9l27.3-23l-9-3.5c-6.2-2.4-13-1.6-18.5,2l-15.4,15.7H185.6L170.1,3.4c-5.4-3.6-12.4-4.4-18.5-2
			l-9,3.5l27.2,23H342z"/>
		<path class="st9" d="M440,65.2l-9.1-28.3c-1.8-5.8-6.2-10.4-11.8-12.6l-8.8-3.4v21C421.5,47.7,431.6,55.7,440,65.2z"/>
		<path class="st9" d="M196.5,158.8c-0.2-0.3-0.7-0.3-0.9,0l-7.4,12.8c-0.2,0.3,0.1,0.8,0.4,0.8h14.8c0.4,0,0.6-0.4,0.4-0.8
			L196.5,158.8z"/>
		<path class="st9" d="M203.5,211.3h-14.8c-0.4,0-0.6,0.4-0.4,0.8l7.4,12.8c0.2,0.3,0.7,0.3,0.9,0l7.4-12.8
			C204.1,211.7,203.9,211.3,203.5,211.3z"/>
		<path class="st9" d="M215.5,184.5v14.8c0,0.4,0.4,0.6,0.8,0.4l12.8-7.4c0.3-0.2,0.3-0.7,0-0.9l-12.8-7.4
			C215.9,183.8,215.5,184.1,215.5,184.5z"/>
		<path class="st9" d="M163,191.4c-0.3,0.2-0.3,0.7,0,0.9l12.8,7.4c0.3,0.2,0.8,0,0.8-0.4v-14.8c0-0.4-0.4-0.6-0.8-0.4L163,191.4z"
			/>
		<path class="st9" d="M511.5,276.9c-0.1-0.5-0.1-1-0.1-1.4c0,0,0,0,0-0.1c-0.7-9-2.1-18.9-4.4-29.7c-3.4,0-5.9,3.2-5,6.5
			c8.7,33.1,6.6,59.2-6.3,74.1c0,0.1-0.1,0.1-0.1,0.1c-4.9,5.6-15.2,5.6-20.3,0.2c-2.3-2.4-4.5-4.8-6.5-6.9
			c-29.5-31.2-66.1-70.1-108.3-70.1H151.5c-42.2,0-78.8,38.9-108.3,70.1c-2,2.1-4.3,4.5-6.5,6.9c-5.2,5.4-15.5,5.4-20.4-0.2
			c0,0-0.1-0.1-0.1-0.1c-12.8-14.9-15-41-6.3-74.1c0.9-3.3-1.6-6.5-5-6.5c-2.3,11.3-3.8,21.6-4.5,31c-5.4,71.8,32.4,92.2,49.4,94.9
			c0.5,0.1,1,0.1,1.6,0.2c1.8,0.2,3.2,0.1,4.3-0.1c14.3-2.6,65.6-98.8,104.9-98.8c39.4,0,95.3,0,95.3,0s55.9,0,95.3,0
			c39.4,0,90.6,96.2,105,98.8C467.5,373.8,517.5,358.7,511.5,276.9z"/>
	</g>
</g>
</svg>
