<?xml version="1.0" encoding="iso-8859-1"?>
<!-- Generator: Adobe Illustrator 22.1.0, SVG Export Plug-In . SVG Version: 6.00 Build 0)  -->
<svg version="1.1" id="_x34_" xmlns="http://www.w3.org/2000/svg" xmlns:xlink="http://www.w3.org/1999/xlink" x="0px" y="0px"
	 viewBox="0 0 479.2 512" style="enable-background:new 0 0 479.2 512;" xml:space="preserve">
<style type="text/css">
	.st0{fill:#DF7350;}
	.st1{fill:#FAD5AE;}
	.st2{fill:#352A20;}
	.st3{opacity:0.4;fill:#FFFFFF;}
	.st4{opacity:6.000000e-02;fill:#040000;}
	.st5{fill:#FCFBE8;}
</style>
<g>
	<path class="st0" d="M479.2,512H0c0,0,12.2-60.5,18.3-80.7c6.8-22.5,27.2-38.8,49.8-46.1c19.5-6.4,33.1-6.8,52.3-8.2
		c3.1-0.2,6.2-0.5,9.6-0.7c19.9-4.2,53.9-24,53.9-50.9v-33h111.4v33c0,26.9,34,46.6,54,50.9c3.4,0.3,6.6,0.5,9.6,0.7
		c19.2,1.4,32.7,1.8,52.2,8.2c22.5,7.3,42.9,23.6,49.8,46.1C467,451.5,479.2,512,479.2,512z"/>
	<g>
		<path class="st1" d="M295.3,325.4v-33.6c6.3-6.5,10.6-12.1,12.5-14.7c11.2-15.7,14.3-37.2,18.7-45.4c33,7,35.7-47.2,34.5-60.5
			c-1.2-13.3-19.2-8.2-19.2-8.2c0.4-15.3-1.2-72.6-2-76.2c-0.8-15.7-28.6-66.5-64.1-62.1C262.8,12.8,241,3.1,214.8,8.4
			c-26.2,5.2-66.5,35.1-80.2,72.2c-13.7,37.1-12.2,71.2-0.7,83.3c0,0-14.6-4.5-15.8,8.8c-1.2,13.3,3.4,68,29.4,64.4
			c4.4,8.1,6.7,26.4,15.7,40.2c2.4,3.8,10,13.3,20.7,22.8v25.5c0,26.9-34,46.6-53.9,50.9c-3.4,0.3-6.6,0.5-9.6,0.7
			c20.6,38.6,66.6,65.4,119.3,65.4c52.7,0,98.7-26.8,119.3-65.4c-3.1-0.2-6.2-0.5-9.6-0.7C329.3,372.1,295.3,352.3,295.3,325.4z"/>
	</g>
	<path class="st2" d="M349.7,86.3c-0.6-11.4-13.5-38.2-32.5-54.2c-11.9-10-24.1-14.5-36.4-13.4C263.7,3.2,239.4-3.2,215.6,1.5
		c-29.9,6-71.6,38.5-86,77.3c-14.1,38.2-9.6,75.6-0.3,85.9c-0.7,7.7,2.4,21.8,6.2,27.7c0.8,1.3,2.3,1.9,3.8,1.4
		c1.5-0.4,2.5-1.7,2.5-3.3c0.1-19.5,1-36.9,1.2-41.1c7.3-5.8,20.1-15.8,31.9-25.2c12.8-10.2,25-19.8,27.6-21.8
		c27.2-4.3,53.6-16.4,70.4-26.9c-0.9,2-1.7,4-2.5,6c-3.8,9.2-6.8,16.8-15,19.3c-1.4,0.3-2.8,0.5-4.3,0.8l0.7,5.2
		c1.8-0.2,3.4-0.5,4.9-0.9c27.1-5.3,37.2-12.1,42.1-21.4c5.4,16.1,10,43.2,10.6,46.5c0.1,0.8,0.6,1.6,1.2,2.1
		c5.4,4.3,12.1,13.5,15.4,18.6l7.7,41.4c0.3,1.5,1.6,2.7,3.2,2.8c0.1,0,0.1,0,0.2,0c1.5,0,2.8-1,3.3-2.4c5.5-17.6,10.5-27.3,11-28.4
		l0.4-0.9l0-0.6C352.2,147.6,350.6,90.2,349.7,86.3z"/>
	<path class="st3" d="M190.3,70.3l1.1-2.8l3.6-9.1c0,0-1.3-0.7-3.4-1.2c-2.6-0.7-6.5-1.2-10.8,0c0.4-1.6,0.7-3.1,1.2-4.5
		c1.2-4,2.8-7.5,4.6-10.5c-3.8,1.5-18.6,8.4-25,27.9l0,0c-0.5,1.7-1,3.4-1.4,5.3c3.2-0.4,6.4-0.5,9-0.6c3.7,0,6.3,0.2,6.3,0.2
		L170.8,86l0,0c0,0,0,0,0,0l0,0l-1,2.3c0,0,2.2,0.4,5.6,0.1c6.4-0.5,17-3.2,25.9-14.7c0.4-0.5,0.8-1.1,1.2-1.6
		c0.9-1.2,1.6-2.4,2.2-3.7c-1.6,0.6-3.1,1-4.5,1.3C194.4,71,190.3,70.3,190.3,70.3z"/>
	<g>
		<path class="st4" d="M351.4,162.4v1.9l-0.4,0.8c-0.6,1-5.5,10.7-11,28.4c-0.4,1.4-1.8,2.4-3.2,2.4h-0.2c-1.5-0.2-2.9-1.3-3.1-2.8
			l-7.8-41.4c-3.3-5.1-10-14.3-15.4-18.6c-0.6-0.5-1-1.2-1.2-2.1c-0.6-3.3-5.2-30.4-10.6-46.5c-4.9,9.4-15,16.1-42.1,21.4
			c-1.4,0.4-3.1,0.7-4.9,0.9l-0.7-5.1c1.5-0.2,3-0.6,4.3-0.8c8.2-2.5,11.3-10.1,15-19.3c0.8-2,1.6-4,2.5-6
			c-16.7,10.5-43.2,22.6-70.4,26.9c-2.6,2-14.7,11.6-27.6,21.8c-11.8,9.4-24.6,19.5-31.9,25.3c-0.2,4.2-1.1,21.7-1.2,41.1
			c0,1.5-1,2.9-2.5,3.3c-1.5,0.4-3-0.2-3.8-1.4c-3.8-6-7-20.1-6.2-27.8c-0.4-0.5-0.9-1-1.3-1.6c-2.6,0.1-5.4,0.8-7.4,3
			c0.2,0.4,0.4,0.7,0.6,1.1c0.1,9.6,3.4,23,7.6,29.5c2.1,3.3,5.7,5.3,9.6,5.3c1,0,2.1-0.2,3.2-0.5c4.9-1.4,8.2-5.8,8.2-11
			c0.1-15.8,0.6-30.2,1-37.1c7.5-5.9,18.7-14.7,29.3-23c11-8.7,21.5-17,25.8-20.4c13.4-2.3,26-6.3,36.9-10.6l2.1,15.9l7.6-0.6
			c2.2-0.2,4.4-0.6,5.8-1c16.9-3.4,28.6-7.4,36.7-13.2c3.4,14.1,6.1,29.5,6.4,31.8c0.5,2.8,2,5.3,4.2,7c3.7,3,9,9.8,12.8,15.4
			l7.4,39.8c1,5.2,5.4,9,10.2,9.3l1.1,0.1c5,0,9.4-3.3,10.9-8c5.3-17,9.9-26.1,10.7-27.7l0.4-0.9l0.2-1
			C357.3,163.8,354.4,162.7,351.4,162.4z"/>
		<path class="st4" d="M295.2,325.4v-33.5c-0.2,0.2-0.3,0.4-0.6,0.6c-13.4,13.8-35.2,31-59.2,31c-19.8,0-38.2-11.7-51.6-23.5v25.5
			c0,24.7-28.8,43.4-48.9,49.5c23.9,27,62.1,44.5,104.6,44.5c42.5,0,80.6-17.4,104.6-44.5C324,368.9,295.2,350.1,295.2,325.4z"/>
	</g>
	<path class="st5" d="M358.9,377c-20.6,38.6-66.6,65.4-119.3,65.4c-52.6,0-98.6-26.8-119.3-65.4c3.1-0.2,6.2-0.5,9.6-0.7
		c1.6-0.3,3.3-0.8,5.1-1.4c23.9,27.1,62.1,44.5,104.6,44.5c42.5,0,80.7-17.4,104.6-44.5c1.8,0.6,3.4,1,5,1.4
		C352.7,376.6,355.8,376.8,358.9,377z"/>
</g>
</svg>
